<svg width="100%" height="100%" viewBox="0 0 150 111" version="1.1" xmlns="http://www.w3.org/2000/svg" xmlns:xlink="http://www.w3.org/1999/xlink" xml:space="preserve" xmlns:serif="http://www.serif.com/" style="fill-rule:evenodd;clip-rule:evenodd;stroke-linejoin:round;stroke-miterlimit:1.41421;"><g><g><circle cx="5.791" cy="5.791" r="5.791" style="fill:#7fc6f7;"/><circle cx="5.791" cy="19.833" r="5.791" style="fill:#7fc6f7;"/><circle cx="5.791" cy="33.875" r="5.791" style="fill:#7fc6f7;"/><circle cx="5.791" cy="47.917" r="5.791" style="fill:#7fc6f7;"/><circle cx="21.286" cy="5.791" r="5.791" style="fill:#7fc6f7;"/><circle cx="21.286" cy="19.833" r="5.791" style="fill:#7fc6f7;"/><circle cx="21.286" cy="33.875" r="5.791" style="fill:#7fc6f7;"/><circle cx="21.286" cy="47.917" r="5.791" style="fill:#7fc6f7;"/><circle cx="36.781" cy="5.791" r="5.791" style="fill:#7fc6f7;"/><circle cx="36.781" cy="19.833" r="5.791" style="fill:#7fc6f7;"/><circle cx="36.781" cy="33.875" r="5.791" style="fill:#7fc6f7;"/><circle cx="36.781" cy="47.917" r="5.791" style="fill:#7fc6f7;"/><circle cx="52.276" cy="5.791" r="5.791" style="fill:#7fc6f7;"/><circle cx="67.502" cy="5.791" r="5.791" style="fill:#7fc6f7;"/><circle cx="52.276" cy="19.833" r="5.791" style="fill:#7fc6f7;"/><circle cx="67.502" cy="19.833" r="5.791" style="fill:#7fc6f7;"/><circle cx="52.276" cy="33.875" r="5.791" style="fill:#7fc6f7;"/><circle cx="67.502" cy="33.875" r="5.791" style="fill:#7fc6f7;"/><circle cx="52.276" cy="47.917" r="5.791" style="fill:#7fc6f7;"/><circle cx="67.502" cy="47.917" r="5.791" style="fill:#7fc6f7;"/></g><g><circle cx="5.791" cy="63.024" r="5.791" style="fill:#7fc6f7;"/><circle cx="5.791" cy="77.066" r="5.791" style="fill:#7fc6f7;"/><circle cx="5.791" cy="91.108" r="5.791" style="fill:#7fc6f7;"/><circle cx="5.791" cy="105.15" r="5.791" style="fill:#7fc6f7;"/><circle cx="21.286" cy="63.024" r="5.791" style="fill:#7fc6f7;"/><circle cx="21.286" cy="77.066" r="5.791" style="fill:#7fc6f7;"/><circle cx="21.286" cy="91.108" r="5.791" style="fill:#7fc6f7;"/><circle cx="21.286" cy="105.15" r="5.791" style="fill:#7fc6f7;"/><circle cx="36.781" cy="63.024" r="5.791" style="fill:#7fc6f7;"/><circle cx="36.781" cy="77.066" r="5.791" style="fill:#7fc6f7;"/><circle cx="36.781" cy="91.108" r="5.791" style="fill:#7fc6f7;"/><circle cx="36.781" cy="105.15" r="5.791" style="fill:#7fc6f7;"/><circle cx="52.276" cy="63.024" r="5.791" style="fill:#7fc6f7;"/><circle cx="67.502" cy="63.024" r="5.791" style="fill:#7fc6f7;"/><circle cx="52.276" cy="77.066" r="5.791" style="fill:#7fc6f7;"/><circle cx="67.502" cy="77.066" r="5.791" style="fill:#7fc6f7;"/><circle cx="52.276" cy="91.108" r="5.791" style="fill:#7fc6f7;"/><circle cx="67.502" cy="91.108" r="5.791" style="fill:#7fc6f7;"/><circle cx="52.276" cy="105.15" r="5.791" style="fill:#7fc6f7;"/><circle cx="67.502" cy="105.15" r="5.791" style="fill:#7fc6f7;"/></g><g><circle cx="82.206" cy="63.024" r="5.791" style="fill:#7fc6f7;"/><circle cx="82.206" cy="77.066" r="5.791" style="fill:#7fc6f7;"/><circle cx="82.206" cy="91.108" r="5.791" style="fill:#7fc6f7;"/><circle cx="82.206" cy="105.15" r="5.791" style="fill:#7fc6f7;"/><circle cx="97.701" cy="63.024" r="5.791" style="fill:#7fc6f7;"/><circle cx="97.701" cy="77.066" r="5.791" style="fill:#7fc6f7;"/><circle cx="97.701" cy="91.108" r="5.791" style="fill:#7fc6f7;"/><circle cx="97.701" cy="105.15" r="5.791" style="fill:#7fc6f7;"/><circle cx="113.196" cy="63.024" r="5.791" style="fill:#7fc6f7;"/><circle cx="113.196" cy="77.066" r="5.791" style="fill:#7fc6f7;"/><circle cx="113.196" cy="91.108" r="5.791" style="fill:#7fc6f7;"/><circle cx="113.196" cy="105.15" r="5.791" style="fill:#7fc6f7;"/><circle cx="128.691" cy="63.024" r="5.791" style="fill:#7fc6f7;"/><circle cx="143.917" cy="63.024" r="5.791" style="fill:#7fc6f7;"/><circle cx="128.691" cy="77.066" r="5.791" style="fill:#7fc6f7;"/><circle cx="143.917" cy="77.066" r="5.791" style="fill:#7fc6f7;"/><circle cx="128.691" cy="91.108" r="5.791" style="fill:#7fc6f7;"/><circle cx="143.917" cy="91.108" r="5.791" style="fill:#7fc6f7;"/><circle cx="128.691" cy="105.15" r="5.791" style="fill:#7fc6f7;"/><circle cx="143.917" cy="105.15" r="5.791" style="fill:#7fc6f7;"/></g><g><circle cx="82.206" cy="5.791" r="5.791" style="fill:#7fc6f7;"/><circle cx="82.206" cy="19.833" r="5.791" style="fill:#7fc6f7;"/><circle cx="82.206" cy="33.875" r="5.791" style="fill:#7fc6f7;"/><circle cx="82.206" cy="47.917" r="5.791" style="fill:#7fc6f7;"/><circle cx="97.701" cy="5.791" r="5.791" style="fill:#7fc6f7;"/><circle cx="97.701" cy="19.833" r="5.791" style="fill:#7fc6f7;"/><circle cx="97.701" cy="33.875" r="5.791" style="fill:#7fc6f7;"/><circle cx="97.701" cy="47.917" r="5.791" style="fill:#7fc6f7;"/><circle cx="113.196" cy="5.791" r="5.791" style="fill:#7fc6f7;"/><circle cx="113.196" cy="19.833" r="5.791" style="fill:#7fc6f7;"/><circle cx="113.196" cy="33.875" r="5.791" style="fill:#7fc6f7;"/><circle cx="113.196" cy="47.917" r="5.791" style="fill:#7fc6f7;"/><circle cx="128.691" cy="5.791" r="5.791" style="fill:#7fc6f7;"/><circle cx="143.917" cy="5.791" r="5.791" style="fill:#7fc6f7;"/><circle cx="128.691" cy="19.833" r="5.791" style="fill:#7fc6f7;"/><circle cx="143.917" cy="19.833" r="5.791" style="fill:#7fc6f7;"/><circle cx="128.691" cy="33.875" r="5.791" style="fill:#7fc6f7;"/><circle cx="143.917" cy="33.875" r="5.791" style="fill:#7fc6f7;"/><circle cx="128.691" cy="47.917" r="5.791" style="fill:#7fc6f7;"/><circle cx="143.917" cy="47.917" r="5.791" style="fill:#7fc6f7;"/></g></g></svg>
