<?xml version="1.0" standalone="no"?>
<!DOCTYPE svg PUBLIC "-//W3C//DTD SVG 20010904//EN"
 "http://www.w3.org/TR/2001/REC-SVG-20010904/DTD/svg10.dtd">
<svg version="1.0" xmlns="http://www.w3.org/2000/svg"
 width="852.000000pt" height="852.000000pt" viewBox="0 0 852.000000 852.000000"
 preserveAspectRatio="xMidYMid meet">
<metadata>
Created by potrace 1.11, written by Peter Selinger 2001-2013
</metadata>
<g transform="translate(0.000000,852.000000) scale(0.100000,-0.100000)"
fill="#000000" stroke="none">
<path d="M2027 7897 c1 -342 2 -638 2 -658 l1 -36 1568 0 c863 0 1573 -2 1578
-5 7 -5 12 -4476 5 -4508 -1 -3 -371 -5 -823 -5 l-823 0 0 -657 c0 -580 2
-658 15 -659 105 -6 2943 -2 2947 4 3 5 5 1318 5 2918 0 2189 3 2909 11 2910
7 0 190 1 408 1 l397 1 0 658 0 659 -2646 0 -2647 0 2 -623z"/>
<path d="M2068 7012 c-31 -3 -38 -7 -39 -25 0 -34 0 -6950 0 -6969 1 -17 115
-18 2236 -18 l2235 0 1 48 c0 67 0 1028 0 1083 l-1 45 -1562 -1 c-860 0 -1570
2 -1578 6 -13 6 -15 339 -15 2918 l0 2911 -25 0 c-187 3 -1225 4 -1252 2z"/>
<path d="M1214 2675 c-2 -5 -3 -302 -2 -659 l3 -649 295 0 c162 1 302 2 311 2
14 1 15 67 15 658 l-1 658 -309 0 c-199 0 -310 -3 -312 -10z"/>
</g>
</svg>
